<?xml version="1.0" encoding="UTF-8" standalone="no"?>
<!DOCTYPE svg PUBLIC "-//W3C//DTD SVG 1.1//EN" "http://www.w3.org/Graphics/SVG/1.1/DTD/svg11.dtd">
<svg width="100%" height="100%" viewBox="0 0 134 46" version="1.1" xmlns="http://www.w3.org/2000/svg" xmlns:xlink="http://www.w3.org/1999/xlink" xml:space="preserve" xmlns:serif="http://www.serif.com/" style="fill-rule:evenodd;clip-rule:evenodd;stroke-linejoin:round;stroke-miterlimit:2;">
    <g id="Artboard1" transform="matrix(1,0,0,0.656308,0,0)">
        <rect x="0" y="0" width="133.68" height="69.83" style="fill:none;"/>
        <clipPath id="_clip1">
            <rect x="0" y="0" width="133.68" height="69.83"/>
        </clipPath>
        <g clip-path="url(#_clip1)">
            <g transform="matrix(1.32922,0,0,2.0253,-22.0113,-35.9038)">
                <g id="Warstwa_2">
                    <g id="Warstwa_1-2">
                        <path d="M78.67,18.41C77.85,18.41 77.17,18.86 77.17,19.41L77.17,25.41C76.299,24.913 75.313,24.651 74.31,24.65C71.09,24.65 68.44,27.3 68.44,30.52L68.44,36.5C68.437,36.581 68.435,36.661 68.435,36.742C68.435,39.962 71.085,42.612 74.305,42.612C77.525,42.612 80.175,39.962 80.175,36.742C80.175,36.661 80.173,36.581 80.17,36.5L80.17,19.42C80.17,18.86 79.5,18.41 78.67,18.41ZM77.17,36.5C77.173,36.556 77.175,36.613 77.175,36.669C77.175,38.244 75.879,39.539 74.305,39.539C72.731,39.539 71.435,38.244 71.435,36.669C71.435,36.613 71.437,36.556 71.44,36.5L71.44,30.58C71.437,30.524 71.435,30.467 71.435,30.411C71.435,28.836 72.731,27.541 74.305,27.541C75.879,27.541 77.175,28.836 77.175,30.411C77.175,30.467 77.173,30.524 77.17,30.58L77.17,36.5Z" style="fill:white;fill-rule:nonzero;"/>
                        <rect x="48.3" y="47.65" width="0.51" height="4.11" style="fill:white;fill-rule:nonzero;"/>
                        <path d="M53.2,47.65L53.2,51.76L52.7,51.76L50.39,48.53L50.39,51.76L49.87,51.76L49.87,47.65L50.37,47.65L52.69,50.88L52.69,47.65L53.2,47.65Z" style="fill:white;fill-rule:nonzero;"/>
                        <path d="M56.54,48.68C56.516,48.486 56.405,48.314 56.24,48.21C56.045,48.09 55.819,48.031 55.59,48.04C55.422,48.036 55.255,48.067 55.1,48.13C54.97,48.178 54.856,48.261 54.77,48.37C54.691,48.469 54.648,48.593 54.65,48.72C54.649,48.819 54.677,48.916 54.73,49C54.79,49.077 54.861,49.144 54.94,49.2L55.21,49.32L55.47,49.4L55.9,49.51L56.27,49.63C56.408,49.68 56.539,49.748 56.66,49.83C56.787,49.915 56.893,50.028 56.97,50.16C57.054,50.306 57.096,50.472 57.09,50.64C57.097,50.856 57.037,51.069 56.92,51.25C56.785,51.436 56.602,51.581 56.39,51.67C56.129,51.786 55.845,51.841 55.56,51.83C55.293,51.835 55.028,51.787 54.78,51.69C54.571,51.605 54.389,51.467 54.25,51.29C54.115,51.12 54.028,50.916 54,50.7L54.53,50.7C54.537,50.842 54.593,50.976 54.69,51.08C54.789,51.186 54.913,51.265 55.05,51.31C55.202,51.359 55.361,51.383 55.52,51.38C55.701,51.383 55.88,51.352 56.05,51.29C56.195,51.238 56.322,51.148 56.42,51.03C56.511,50.921 56.561,50.782 56.56,50.64C56.565,50.516 56.522,50.394 56.44,50.3C56.35,50.212 56.245,50.141 56.13,50.09L55.75,50L55.23,49.86C54.941,49.793 54.673,49.656 54.45,49.46C54.254,49.295 54.146,49.046 54.16,48.79C54.157,48.575 54.224,48.364 54.35,48.19C54.487,48.015 54.666,47.877 54.87,47.79C55.1,47.691 55.349,47.643 55.6,47.65C55.851,47.641 56.1,47.689 56.33,47.79C56.528,47.873 56.704,48.004 56.84,48.17C56.962,48.332 57.032,48.527 57.04,48.73L56.54,48.68Z" style="fill:white;fill-rule:nonzero;"/>
                        <path d="M57.71,48.09L57.71,47.65L60.88,47.65L60.88,48.09L59.55,48.09L59.55,51.76L59,51.76L59,48.09L57.71,48.09Z" style="fill:white;fill-rule:nonzero;"/>
                        <path d="M61.36,51.76L60.82,51.76L62.38,47.65L62.91,47.65L64.46,51.76L63.92,51.76L62.66,48.3L61.36,51.76ZM61.56,50.15L63.72,50.15L63.72,50.6L61.56,50.6L61.56,50.15Z" style="fill:white;fill-rule:nonzero;"/>
                        <path d="M68.48,47.65L68.48,51.76L68,51.76L65.69,48.53L65.69,51.76L65.17,51.76L65.17,47.65L65.67,47.65L67.99,50.88L67.99,47.65L68.48,47.65Z" style="fill:white;fill-rule:nonzero;"/>
                        <path d="M69.28,48.09L69.28,47.65L72.46,47.65L72.46,48.09L71.12,48.09L71.12,51.76L70.61,51.76L70.61,48.09L69.28,48.09Z" style="fill:white;fill-rule:nonzero;"/>
                        <path d="M77.21,48.68C77.186,48.486 77.075,48.314 76.91,48.21C76.715,48.09 76.489,48.031 76.26,48.04C76.089,48.036 75.919,48.067 75.76,48.13C75.633,48.178 75.522,48.261 75.44,48.37C75.361,48.469 75.318,48.593 75.32,48.72C75.319,48.819 75.347,48.916 75.4,49C75.46,49.077 75.531,49.144 75.61,49.2L75.88,49.32L76.14,49.4L76.57,49.51L76.94,49.63C77.078,49.68 77.209,49.748 77.33,49.83C77.457,49.915 77.563,50.028 77.64,50.16C77.724,50.306 77.766,50.472 77.76,50.64C77.763,50.857 77.7,51.07 77.58,51.25C77.449,51.435 77.269,51.581 77.06,51.67C76.799,51.785 76.515,51.84 76.23,51.83C75.96,51.834 75.692,51.786 75.44,51.69C75.236,51.603 75.057,51.465 74.92,51.29C74.795,51.118 74.722,50.913 74.71,50.7L75.24,50.7C75.247,50.842 75.303,50.976 75.4,51.08C75.497,51.188 75.621,51.267 75.76,51.31C75.912,51.359 76.071,51.383 76.23,51.38C76.411,51.383 76.59,51.352 76.76,51.29C76.905,51.238 77.032,51.148 77.13,51.03C77.221,50.921 77.271,50.782 77.27,50.64C77.275,50.516 77.232,50.394 77.15,50.3C77.06,50.212 76.955,50.141 76.84,50.09L76.42,50L75.9,49.86C75.609,49.791 75.338,49.654 75.11,49.46C74.919,49.291 74.812,49.045 74.82,48.79C74.82,48.574 74.89,48.363 75.02,48.19C75.157,48.015 75.336,47.877 75.54,47.79C75.77,47.691 76.019,47.643 76.27,47.65C76.521,47.641 76.77,47.689 77,47.79C77.198,47.873 77.374,48.004 77.51,48.17C77.628,48.333 77.695,48.528 77.7,48.73L77.21,48.68Z" style="fill:white;fill-rule:nonzero;"/>
                        <path d="M78.61,51.76L78.61,47.65L81.17,47.65L81.17,48.09L79.17,48.09L79.17,49.48L81,49.48L81,49.92L79.12,49.92L79.12,51.32L81.2,51.32L81.2,51.76L78.61,51.76Z" style="fill:white;fill-rule:nonzero;"/>
                        <path d="M85.45,47.65L85.45,51.76L85,51.76L82.69,48.53L82.6,48.53L82.6,51.76L82.09,51.76L82.09,47.65L82.59,47.65L84.91,50.88L84.91,47.65L85.45,47.65Z" style="fill:white;fill-rule:nonzero;"/>
                        <path d="M88.8,48.68C88.775,48.484 88.66,48.31 88.49,48.21C88.296,48.088 88.069,48.028 87.84,48.04C87.672,48.037 87.506,48.068 87.35,48.13C87.221,48.175 87.109,48.259 87.03,48.37C86.951,48.469 86.908,48.593 86.91,48.72C86.912,48.82 86.943,48.918 87,49C87.055,49.081 87.126,49.149 87.21,49.2L87.48,49.32L87.74,49.4L88.17,49.51L88.54,49.63C88.676,49.685 88.806,49.752 88.93,49.83C89.055,49.917 89.161,50.03 89.24,50.16C89.324,50.306 89.366,50.472 89.36,50.64C89.363,50.857 89.3,51.07 89.18,51.25C89.049,51.435 88.869,51.581 88.66,51.67C88.399,51.784 88.115,51.839 87.83,51.83C87.56,51.835 87.292,51.787 87.04,51.69C86.836,51.603 86.657,51.465 86.52,51.29C86.389,51.121 86.315,50.914 86.31,50.7L86.84,50.7C86.842,50.843 86.899,50.979 87,51.08C87.095,51.19 87.22,51.27 87.36,51.31C87.512,51.36 87.671,51.383 87.83,51.38C88.011,51.382 88.19,51.351 88.36,51.29C88.503,51.235 88.63,51.146 88.73,51.03C88.819,50.92 88.865,50.781 88.86,50.64C88.864,50.517 88.825,50.397 88.75,50.3C88.656,50.212 88.548,50.141 88.43,50.09C88.289,50.05 88.145,50.02 88,50L87.48,49.86C87.188,49.793 86.917,49.656 86.69,49.46C86.499,49.291 86.392,49.045 86.4,48.79C86.4,48.574 86.47,48.363 86.6,48.19C86.735,48.013 86.914,47.875 87.12,47.79C87.35,47.691 87.599,47.643 87.85,47.65C88.101,47.642 88.35,47.69 88.58,47.79C88.777,47.87 88.95,48.002 89.08,48.17C89.209,48.328 89.28,48.526 89.28,48.73L88.8,48.68Z" style="fill:white;fill-rule:nonzero;"/>
                        <path d="M93.77,49.71C93.779,50.097 93.697,50.481 93.53,50.83C93.382,51.133 93.149,51.386 92.86,51.56C92.268,51.907 91.532,51.907 90.94,51.56C90.651,51.386 90.418,51.133 90.27,50.83C89.951,50.114 89.951,49.296 90.27,48.58C90.418,48.277 90.651,48.024 90.94,47.85C91.538,47.523 92.262,47.523 92.86,47.85C93.149,48.024 93.382,48.277 93.53,48.58C93.698,48.933 93.78,49.32 93.77,49.71ZM93.27,49.71C93.281,49.4 93.219,49.092 93.09,48.81C92.982,48.581 92.813,48.387 92.6,48.25C92.169,47.996 91.631,47.996 91.2,48.25C90.987,48.387 90.818,48.581 90.71,48.81C90.581,49.092 90.519,49.4 90.53,49.71C90.522,50.02 90.583,50.327 90.71,50.61C90.818,50.836 90.988,51.027 91.2,51.16C91.631,51.414 92.169,51.414 92.6,51.16C92.812,51.027 92.982,50.836 93.09,50.61C93.217,50.327 93.278,50.02 93.27,49.71Z" style="fill:white;fill-rule:nonzero;"/>
                        <path d="M94.63,51.76L94.63,47.65L96.06,47.65C96.343,47.641 96.624,47.699 96.88,47.82C97.081,47.911 97.246,48.066 97.35,48.26C97.55,48.67 97.55,49.15 97.35,49.56C97.24,49.749 97.076,49.903 96.88,50C96.624,50.109 96.348,50.16 96.07,50.15L94.91,50.15L94.91,49.71L96.05,49.71C96.238,49.714 96.425,49.68 96.6,49.61C96.728,49.557 96.834,49.461 96.9,49.34C96.972,49.208 97.006,49.06 97,48.91C97.005,48.76 96.971,48.612 96.9,48.48C96.835,48.353 96.729,48.251 96.6,48.19C96.425,48.12 96.238,48.086 96.05,48.09L95.14,48.09L95.14,51.76L94.63,51.76ZM96.63,49.91L97.63,51.76L97.03,51.76L96.03,49.91L96.63,49.91Z" style="fill:white;fill-rule:nonzero;"/>
                        <path d="M100.67,48.68C100.653,48.484 100.541,48.308 100.37,48.21C100.176,48.088 99.949,48.028 99.72,48.04C99.552,48.036 99.385,48.067 99.23,48.13C99.1,48.178 98.986,48.261 98.9,48.37C98.828,48.473 98.79,48.595 98.79,48.72C98.784,48.82 98.812,48.918 98.87,49C98.925,49.081 98.996,49.149 99.08,49.2C99.164,49.252 99.255,49.292 99.35,49.32L99.61,49.4L100.04,49.51L100.41,49.63C100.546,49.685 100.676,49.752 100.8,49.83C100.923,49.92 101.028,50.032 101.11,50.16C101.194,50.306 101.236,50.472 101.23,50.64C101.233,50.857 101.17,51.07 101.05,51.25C100.919,51.435 100.739,51.581 100.53,51.67C100.269,51.784 99.985,51.839 99.7,51.83C99.43,51.835 99.162,51.788 98.91,51.69C98.704,51.605 98.525,51.467 98.39,51.29C98.262,51.118 98.185,50.914 98.17,50.7L98.7,50.7C98.71,50.843 98.771,50.977 98.87,51.08C98.965,51.19 99.09,51.27 99.23,51.31C99.554,51.418 99.906,51.418 100.23,51.31C100.375,51.258 100.502,51.168 100.6,51.05C100.696,50.943 100.746,50.803 100.74,50.66C100.745,50.536 100.702,50.414 100.62,50.32C100.532,50.23 100.426,50.158 100.31,50.11C100.176,50.056 100.039,50.009 99.9,49.97L99.38,49.83C99.088,49.763 98.817,49.626 98.59,49.43C98.399,49.261 98.292,49.015 98.3,48.76C98.297,48.545 98.364,48.334 98.49,48.16C98.629,47.987 98.807,47.85 99.01,47.76C99.244,47.661 99.496,47.613 99.75,47.62C100.001,47.613 100.25,47.661 100.48,47.76C100.677,47.84 100.85,47.972 100.98,48.14C101.102,48.302 101.172,48.497 101.18,48.7L100.67,48.68Z" style="fill:white;fill-rule:nonzero;"/>
                        <path d="M44.49,42.37C41.27,42.37 38.62,39.72 38.62,36.5L38.62,30.58C38.617,30.499 38.615,30.419 38.615,30.338C38.615,27.118 41.265,24.468 44.485,24.468C47.705,24.468 50.355,27.118 50.355,30.338C50.355,30.419 50.353,30.499 50.35,30.58L50.35,36.5C50.35,39.716 47.706,42.365 44.49,42.37ZM44.49,27.71C42.916,27.71 41.62,29.006 41.62,30.58L41.62,36.5C41.617,36.556 41.615,36.613 41.615,36.669C41.615,38.244 42.911,39.539 44.485,39.539C46.059,39.539 47.355,38.244 47.355,36.669C47.355,36.613 47.353,36.556 47.35,36.5L47.35,30.58C47.35,29.009 46.061,27.715 44.49,27.71Z" style="fill:white;fill-rule:nonzero;"/>
                        <path d="M33.57,42.37C32.678,42.286 32.007,41.494 32.07,40.6L32.07,20.42C32.001,19.525 32.675,18.729 33.57,18.65C34.465,18.729 35.139,19.525 35.07,20.42L35.07,40.6C35.133,41.494 34.462,42.286 33.57,42.37Z" style="fill:white;fill-rule:nonzero;"/>
                        <path d="M100.17,18.65C99.275,18.729 98.601,19.525 98.67,20.42L98.67,24.65L96.91,24.65C96.015,24.581 95.219,25.255 95.14,26.15C95.224,27.042 96.016,27.713 96.91,27.65L98.67,27.65L98.67,40.65C98.657,40.731 98.65,40.813 98.65,40.896C98.65,41.73 99.336,42.416 100.17,42.416C101.004,42.416 101.69,41.73 101.69,40.896C101.69,40.813 101.683,40.731 101.67,40.65L101.67,20.42C101.739,19.525 101.065,18.729 100.17,18.65Z" style="fill:white;fill-rule:nonzero;"/>
                        <path d="M25.29,35.82L25.29,36.39C25.319,37.779 24.356,39.007 23,39.31C22.812,39.348 22.621,39.367 22.43,39.367C20.857,39.367 19.562,38.073 19.56,36.5L19.56,24.5C19.554,23.113 20.511,21.894 21.86,21.57C22.044,21.533 22.232,21.515 22.42,21.515C23.998,21.515 25.297,22.812 25.3,24.39L25.3,25.07C25.3,25.893 25.977,26.57 26.8,26.57C27.623,26.57 28.3,25.893 28.3,25.07L28.3,24.59C28.334,21.615 26.151,19.041 23.21,18.59C22.955,18.556 22.697,18.539 22.44,18.539C19.218,18.539 16.565,21.188 16.56,24.41L16.56,36.3C16.526,39.278 18.715,41.853 21.66,42.3C21.915,42.334 22.172,42.351 22.43,42.351C25.65,42.351 28.3,39.701 28.3,36.481L28.3,35.8C28.3,34.977 27.623,34.3 26.8,34.3C26.797,34.3 26.793,34.3 26.79,34.3C25.967,34.3 25.29,34.977 25.29,35.8C25.29,35.807 25.29,35.813 25.29,35.82Z" style="fill:white;fill-rule:nonzero;"/>
                        <path d="M62.21,26.15L62.21,36.34C62.245,37.765 61.26,39.027 59.87,39.34C59.695,39.373 59.518,39.389 59.34,39.389C57.766,39.389 56.47,38.094 56.47,36.52L56.47,26.15C56.47,25.327 55.793,24.65 54.97,24.65C54.147,24.65 53.47,25.327 53.47,26.15L53.47,36.25C53.404,39.267 55.623,41.888 58.61,42.32C58.852,42.35 59.096,42.366 59.34,42.366C62.559,42.366 65.208,39.719 65.21,36.5L65.21,26.15C65.21,25.327 64.533,24.65 63.71,24.65C62.887,24.65 62.21,25.327 62.21,26.15Z" style="fill:white;fill-rule:nonzero;"/>
                        <path d="M115.63,24.65C114.807,24.65 114.13,25.327 114.13,26.15L114.13,36.34C114.165,37.765 113.18,39.027 111.79,39.34C111.615,39.373 111.438,39.389 111.26,39.389C109.686,39.389 108.39,38.094 108.39,36.52L108.39,26.15C108.39,25.327 107.713,24.65 106.89,24.65C106.067,24.65 105.39,25.327 105.39,26.15L105.39,36.25C105.324,39.267 107.543,41.888 110.53,42.32C111.774,42.474 113.035,42.228 114.13,41.62L114.13,45.76C114.127,46.876 113.468,47.892 112.45,48.35C111.955,48.606 111.648,49.123 111.66,49.68C111.66,49.685 111.66,49.691 111.66,49.696C111.66,50.514 112.333,51.186 113.15,51.186C113.357,51.186 113.561,51.143 113.75,51.06C115.806,50.1 117.126,48.029 117.13,45.76L117.13,26.15C117.13,25.327 116.453,24.65 115.63,24.65Z" style="fill:white;fill-rule:nonzero;"/>
                        <path d="M92,29.77C92.037,30.48 92.629,31.046 93.34,31.05C94.03,31.047 94.608,30.508 94.66,29.82C94.668,29.797 94.668,29.773 94.66,29.75C94.66,29.733 94.66,29.717 94.66,29.7C94.66,26.957 92.403,24.7 89.66,24.7L88.22,24.7C85.477,24.7 83.22,26.957 83.22,29.7L83.22,29.95C83.22,32.693 85.477,34.95 88.22,34.95L89.64,34.95C90.882,34.955 91.9,35.978 91.9,37.22L91.9,37.47C91.9,38.712 90.882,39.735 89.64,39.74L88.13,39.74C86.888,39.735 85.87,38.712 85.87,37.47C85.873,37.431 85.875,37.393 85.875,37.354C85.875,36.613 85.266,36.004 84.525,36.004C83.784,36.004 83.175,36.613 83.175,37.354C83.175,37.393 83.177,37.431 83.18,37.47C83.18,40.213 85.437,42.47 88.18,42.47L89.69,42.47C92.433,42.47 94.69,40.213 94.69,37.47L94.69,37.22C94.69,34.477 92.433,32.22 89.69,32.22L88.22,32.22C86.982,32.193 85.983,31.158 86,29.92L86,29.67C86,28.425 87.025,27.4 88.27,27.4L89.69,27.4C90.945,27.421 91.973,28.445 92,29.7C92.027,30.955 92,29.7 92,29.7L92,29.77Z" style="fill:white;fill-rule:nonzero;"/>
                        <circle cx="106.38" cy="49.69" r="1.49" style="fill:rgb(0,151,255);"/>
                    </g>
                </g>
            </g>
        </g>
    </g>
</svg>
