<svg xmlns="http://www.w3.org/2000/svg" viewBox="0 0 133.68 69.83"><defs><style>.cls-1{fill:none;}.cls-2{fill:#29285e;}.cls-3{fill:#009fe3;}</style></defs><g id="Warstwa_2" data-name="Warstwa 2"><g id="Warstwa_1-2" data-name="Warstwa 1"><rect class="cls-1" width="133.68" height="69.83"/><path class="cls-2" d="M78.67,18.41c-.82,0-1.5.45-1.5,1v6a5.79,5.79,0,0,0-2.86-.76,5.87,5.87,0,0,0-5.87,5.87V36.5a5.87,5.87,0,1,0,11.73,0V19.42C80.17,18.86,79.5,18.41,78.67,18.41ZM77.17,36.5a2.87,2.87,0,1,1-5.73,0V30.58a2.87,2.87,0,1,1,5.73,0V36.5Z"/><path class="cls-3" d="M48.81,47.65v4.11H48.3V47.65Z"/><path class="cls-3" d="M53.2,47.65v4.11h-.5l-2.31-3.23h0v3.23h-.51V47.65h.49l2.32,3.23h0V47.65Z"/><path class="cls-3" d="M56.54,48.68a.65.65,0,0,0-.3-.47,1.15,1.15,0,0,0-.65-.17,1.22,1.22,0,0,0-.49.09.75.75,0,0,0-.33.24.55.55,0,0,0-.12.35.51.51,0,0,0,.08.28,1,1,0,0,0,.21.2l.27.12.26.08.43.11.37.12a1.79,1.79,0,0,1,.39.2,1,1,0,0,1,.31.33.9.9,0,0,1,.12.48,1.06,1.06,0,0,1-.17.61,1.26,1.26,0,0,1-.53.42,1.86,1.86,0,0,1-.83.16,2.05,2.05,0,0,1-.78-.14,1.29,1.29,0,0,1-.53-.4A1.2,1.2,0,0,1,54,50.7h.53a.6.6,0,0,0,.16.38.86.86,0,0,0,.36.23,1.45,1.45,0,0,0,.47.07,1.47,1.47,0,0,0,.53-.09.85.85,0,0,0,.37-.26.6.6,0,0,0,.14-.39.49.49,0,0,0-.12-.34,1.05,1.05,0,0,0-.31-.21L55.75,50l-.52-.14a1.8,1.8,0,0,1-.78-.4.82.82,0,0,1-.29-.67,1,1,0,0,1,.19-.6,1.32,1.32,0,0,1,.52-.4,1.73,1.73,0,0,1,.73-.14,1.67,1.67,0,0,1,.73.14,1.25,1.25,0,0,1,.51.38,1,1,0,0,1,.2.56Z"/><path class="cls-3" d="M57.71,48.09v-.44h3.17v.44H59.55v3.67H59V48.09Z"/><path class="cls-3" d="M61.36,51.76h-.54l1.56-4.11h.53l1.55,4.11h-.54L62.66,48.3h0Zm.2-1.61h2.16v.45H61.56Z"/><path class="cls-3" d="M68.48,47.65v4.11H68l-2.31-3.23h0v3.23h-.52V47.65h.5l2.32,3.23h0V47.65Z"/><path class="cls-3" d="M69.28,48.09v-.44h3.18v.44H71.12v3.67h-.51V48.09Z"/><path class="cls-3" d="M77.21,48.68a.65.65,0,0,0-.3-.47,1.15,1.15,0,0,0-.65-.17,1.28,1.28,0,0,0-.5.09.72.72,0,0,0-.32.24.55.55,0,0,0-.12.35.51.51,0,0,0,.08.28,1,1,0,0,0,.21.2l.27.12.26.08.43.11.37.12a1.79,1.79,0,0,1,.39.2,1,1,0,0,1,.31.33.9.9,0,0,1,.12.48,1.07,1.07,0,0,1-.18.61,1.23,1.23,0,0,1-.52.42,1.89,1.89,0,0,1-.83.16,2.14,2.14,0,0,1-.79-.14,1.32,1.32,0,0,1-.52-.4,1.11,1.11,0,0,1-.21-.59h.53a.6.6,0,0,0,.16.38.8.8,0,0,0,.36.23,1.45,1.45,0,0,0,.47.07,1.47,1.47,0,0,0,.53-.09.85.85,0,0,0,.37-.26.6.6,0,0,0,.14-.39.49.49,0,0,0-.12-.34,1.05,1.05,0,0,0-.31-.21L76.42,50l-.52-.14a1.9,1.9,0,0,1-.79-.4.86.86,0,0,1-.29-.67,1,1,0,0,1,.2-.6,1.32,1.32,0,0,1,.52-.4,1.73,1.73,0,0,1,.73-.14,1.67,1.67,0,0,1,.73.14,1.32,1.32,0,0,1,.51.38,1,1,0,0,1,.19.56Z"/><path class="cls-3" d="M78.61,51.76V47.65h2.56v.44h-2v1.39H81v.44H79.12v1.4H81.2v.44Z"/><path class="cls-3" d="M85.45,47.65v4.11H85l-2.31-3.23H82.6v3.23h-.51V47.65h.5l2.32,3.23h0V47.65Z"/><path class="cls-3" d="M88.8,48.68a.64.64,0,0,0-.31-.47,1.11,1.11,0,0,0-.65-.17,1.26,1.26,0,0,0-.49.09.66.66,0,0,0-.32.24.55.55,0,0,0-.12.35A.51.51,0,0,0,87,49a.8.8,0,0,0,.21.2l.27.12.26.08.43.11.37.12a2.4,2.4,0,0,1,.39.2,1.09,1.09,0,0,1,.31.33.9.9,0,0,1,.12.48,1.07,1.07,0,0,1-.18.61,1.23,1.23,0,0,1-.52.42,1.92,1.92,0,0,1-.83.16,2.1,2.1,0,0,1-.79-.14,1.32,1.32,0,0,1-.52-.4,1,1,0,0,1-.21-.59h.53a.55.55,0,0,0,.16.38.75.75,0,0,0,.36.23,1.41,1.41,0,0,0,.47.07,1.51,1.51,0,0,0,.53-.09.92.92,0,0,0,.37-.26.59.59,0,0,0,.13-.39.53.53,0,0,0-.11-.34,1.11,1.11,0,0,0-.32-.21A3.26,3.26,0,0,0,88,50l-.52-.14a1.84,1.84,0,0,1-.79-.4.86.86,0,0,1-.29-.67,1,1,0,0,1,.2-.6,1.25,1.25,0,0,1,.52-.4,1.73,1.73,0,0,1,.73-.14,1.7,1.7,0,0,1,.73.14,1.21,1.21,0,0,1,.5.38.89.89,0,0,1,.2.56Z"/><path class="cls-3" d="M93.77,49.71a2.46,2.46,0,0,1-.24,1.12,1.75,1.75,0,0,1-.67.73,1.9,1.9,0,0,1-1.92,0,1.75,1.75,0,0,1-.67-.73,2.76,2.76,0,0,1,0-2.25,1.75,1.75,0,0,1,.67-.73,2,2,0,0,1,1.92,0,1.75,1.75,0,0,1,.67.73A2.48,2.48,0,0,1,93.77,49.71Zm-.5,0a2,2,0,0,0-.18-.9,1.35,1.35,0,0,0-.49-.56,1.38,1.38,0,0,0-1.4,0,1.35,1.35,0,0,0-.49.56,2,2,0,0,0-.18.9,2.06,2.06,0,0,0,.18.9,1.32,1.32,0,0,0,.49.55,1.38,1.38,0,0,0,1.4,0,1.32,1.32,0,0,0,.49-.55A2.06,2.06,0,0,0,93.27,49.71Z"/><path class="cls-3" d="M94.63,51.76V47.65h1.43a1.78,1.78,0,0,1,.82.17,1,1,0,0,1,.47.44,1.48,1.48,0,0,1,0,1.3,1.12,1.12,0,0,1-.47.44,1.89,1.89,0,0,1-.81.15H94.91v-.44h1.14a1.39,1.39,0,0,0,.55-.1.61.61,0,0,0,.3-.27.83.83,0,0,0,.1-.43.85.85,0,0,0-.1-.43.59.59,0,0,0-.3-.28,1.22,1.22,0,0,0-.55-.11h-.91v3.67Zm2-1.85,1,1.85h-.6l-1-1.85Z"/><path class="cls-3" d="M100.67,48.68a.6.6,0,0,0-.3-.47,1.11,1.11,0,0,0-.65-.17,1.22,1.22,0,0,0-.49.09.75.75,0,0,0-.33.24.61.61,0,0,0-.11.35.44.44,0,0,0,.08.28.67.67,0,0,0,.21.2,1.11,1.11,0,0,0,.27.12l.26.08.43.11.37.12a2.4,2.4,0,0,1,.39.2,1.23,1.23,0,0,1,.31.33.9.9,0,0,1,.12.48,1.07,1.07,0,0,1-.18.61,1.23,1.23,0,0,1-.52.42,1.92,1.92,0,0,1-.83.16,2.07,2.07,0,0,1-.79-.14,1.25,1.25,0,0,1-.52-.4,1.12,1.12,0,0,1-.22-.59h.53a.61.61,0,0,0,.17.38.75.75,0,0,0,.36.23,1.58,1.58,0,0,0,1,0,.85.85,0,0,0,.37-.26.55.55,0,0,0,.14-.39.49.49,0,0,0-.12-.34.93.93,0,0,0-.31-.21,3.93,3.93,0,0,0-.41-.14l-.52-.14a1.84,1.84,0,0,1-.79-.4.86.86,0,0,1-.29-.67,1,1,0,0,1,.19-.6,1.35,1.35,0,0,1,.53-.4,1.7,1.7,0,0,1,.73-.14,1.73,1.73,0,0,1,.73.14,1.21,1.21,0,0,1,.5.38,1,1,0,0,1,.2.56Z"/><path class="cls-2" d="M44.49,42.37a5.87,5.87,0,0,1-5.87-5.87V30.58a5.87,5.87,0,1,1,11.73,0V36.5A5.87,5.87,0,0,1,44.49,42.37Zm0-14.66a2.87,2.87,0,0,0-2.87,2.87V36.5a2.87,2.87,0,1,0,5.73,0V30.58A2.87,2.87,0,0,0,44.49,27.71Z"/><path class="cls-2" d="M33.57,42.37h0a1.66,1.66,0,0,1-1.5-1.77V20.42a1.65,1.65,0,0,1,1.5-1.77h0a1.65,1.65,0,0,1,1.5,1.77V40.6A1.66,1.66,0,0,1,33.57,42.37Z"/><path class="cls-2" d="M100.17,18.65a1.65,1.65,0,0,0-1.5,1.77v4.23H96.91a1.65,1.65,0,0,0-1.77,1.5,1.66,1.66,0,0,0,1.77,1.5h1.76v13a1.52,1.52,0,1,0,3,0V20.42A1.65,1.65,0,0,0,100.17,18.65Z"/><path class="cls-2" d="M25.29,35.82v.57A2.93,2.93,0,0,1,23,39.31a2.87,2.87,0,0,1-3.44-2.81v-12a3,3,0,0,1,2.3-2.93,2.88,2.88,0,0,1,3.44,2.82v.68a1.5,1.5,0,0,0,1.5,1.5h0a1.5,1.5,0,0,0,1.5-1.5v-.48a6,6,0,0,0-5.09-6,5.88,5.88,0,0,0-6.65,5.82V36.3a6,6,0,0,0,5.1,6,5.87,5.87,0,0,0,6.64-5.82v-.68a1.5,1.5,0,0,0-1.5-1.5h0A1.5,1.5,0,0,0,25.29,35.82Z"/><path class="cls-2" d="M62.21,26.15V36.34a3,3,0,0,1-2.34,3,2.87,2.87,0,0,1-3.4-2.82V26.15a1.5,1.5,0,0,0-1.5-1.5h0a1.5,1.5,0,0,0-1.5,1.5v10.1a6,6,0,0,0,5.14,6.07,5.87,5.87,0,0,0,6.6-5.82V26.15a1.5,1.5,0,0,0-1.5-1.5h0A1.5,1.5,0,0,0,62.21,26.15Z"/><path class="cls-2" d="M115.63,24.65a1.5,1.5,0,0,0-1.5,1.5V36.34a3,3,0,0,1-2.34,3,2.87,2.87,0,0,1-3.4-2.82V26.15a1.5,1.5,0,1,0-3,0v10.1a6,6,0,0,0,5.14,6.07,5.92,5.92,0,0,0,3.6-.7v4.14a2.85,2.85,0,0,1-1.68,2.59,1.46,1.46,0,0,0-.79,1.33,1.49,1.49,0,0,0,2.09,1.38,5.86,5.86,0,0,0,3.38-5.3V26.15A1.5,1.5,0,0,0,115.63,24.65Z"/><path class="cls-2" d="M92,29.77a1.35,1.35,0,0,0,1.34,1.28,1.33,1.33,0,0,0,1.32-1.23.1.1,0,0,0,0-.07,5,5,0,0,0-5-5.05H88.22a5,5,0,0,0-5,5v.25a5,5,0,0,0,5,5h1.42a2.27,2.27,0,0,1,2.26,2.27v.25a2.27,2.27,0,0,1-2.26,2.27H88.13a2.27,2.27,0,0,1-2.26-2.27v0a1.35,1.35,0,1,0-2.69,0v0a5,5,0,0,0,5,5h1.51a5,5,0,0,0,5-5v-.25a5,5,0,0,0-5-5H88.22A2.27,2.27,0,0,1,86,29.92v-.25a2.27,2.27,0,0,1,2.27-2.27h1.42A2.35,2.35,0,0,1,92,29.7h0v0s0,0,0,0h0Z"/><circle class="cls-3" cx="106.38" cy="49.69" r="1.49"/></g></g></svg>